<svg width="30" height="30" viewBox="0 0 30 30" fill="none" xmlns="http://www.w3.org/2000/svg">
<path d="M12.1151 20.5132C11.1111 20.222 10.7102 19.7281 10.9122 19.0315C10.9449 18.9188 10.9959 18.8003 11.0653 18.676C11.5422 17.7593 12.7144 17.2219 14.5816 17.0638C15.1738 17.0134 15.8097 17.0035 16.4894 17.0341C17.1721 17.0544 17.9038 17.1167 18.6843 17.2209C18.9932 16.9218 19.3434 16.5569 19.7348 16.1262C20.1395 15.6883 20.5789 15.1882 21.0529 14.626C21.5917 13.9938 22.0421 13.4747 22.4042 13.0688C22.7765 12.6659 23.0451 12.3718 23.2099 12.1863C23.5469 11.8287 23.8588 11.5194 24.1455 11.2582C24.4425 11.0001 24.721 10.7866 24.9811 10.6176C25.6157 10.1909 26.2665 9.9576 26.9333 9.91779C26.6891 9.80252 26.425 9.69817 26.1412 9.60472C25.8705 9.504 25.5764 9.40758 25.2588 9.31547C23.3841 8.77168 21.9855 8.61589 21.0629 8.84808C20.4381 9.01114 19.9369 9.22671 19.5592 9.49479C19.1522 9.78766 18.9071 10.0775 18.8239 10.3644C18.7199 10.7229 18.8711 11.0056 19.2776 11.2123C19.4121 11.2847 19.546 11.3401 19.6791 11.3788C20.1914 11.5274 20.7459 11.5494 21.3426 11.4448C21.9334 11.3607 22.4535 11.195 22.9028 10.9478C22.9293 10.9332 22.9527 10.9289 22.9732 10.9349C23.0142 10.9467 23.0339 10.9747 23.0322 11.0186C23.0335 11.0523 23.0114 11.0903 22.9658 11.1326C22.7425 11.29 22.4877 11.4215 22.2016 11.5274C21.9155 11.6332 21.5979 11.7132 21.249 11.7675C20.5511 11.876 19.9154 11.8471 19.3417 11.6807C18.8909 11.55 18.5313 11.3346 18.263 11.0346C17.942 10.6861 17.8425 10.3018 17.9643 9.8818C18.0742 9.50275 18.34 9.18001 18.7616 8.91357C20.0323 8.09377 22.066 8.08948 24.8627 8.90069C25.3134 9.03144 25.7444 9.17309 26.1555 9.32566C26.5666 9.47822 26.9615 9.6483 27.3402 9.8359C27.7622 9.83613 28.0961 9.8719 28.342 9.94322C28.844 10.0888 29.0563 10.2948 28.9791 10.5612C28.9434 10.6841 28.8405 10.7709 28.6703 10.8215C28.5134 10.8648 28.3376 10.8582 28.1429 10.8018C28.0303 10.7691 27.9009 10.6982 27.7548 10.5892C27.6189 10.4832 27.4628 10.3324 27.2863 10.1368C26.7308 10.1756 26.2392 10.3773 25.8113 10.7418C25.5041 10.997 25.0654 11.5139 24.4952 12.2926C23.9413 13.0537 23.5089 13.6447 23.198 14.0654C22.8974 14.4891 22.7133 14.7411 22.6455 14.8214C22.2376 15.3473 21.84 15.8372 21.4528 16.2914C21.0686 16.7352 20.6963 17.1381 20.3359 17.5001C20.7648 17.5911 21.1381 17.6828 21.4557 17.7749C21.5888 17.8135 21.7103 17.8543 21.82 17.8972C21.9327 17.9299 22.0388 17.9662 22.1382 18.0062C22.2582 18.0521 22.3108 18.1006 22.2959 18.1519C22.2721 18.2338 22.1834 18.2525 22.0297 18.2079C21.4385 18.0254 20.7894 17.8704 20.0822 17.743C18.0273 19.7347 15.9772 20.7338 13.9317 20.7403C13.2636 20.7464 12.658 20.6707 12.1151 20.5132ZM12.2067 20.1399C12.6677 20.2737 13.2215 20.2788 13.8681 20.1554C15.292 19.8798 16.7981 18.995 18.3865 17.501C16.3697 17.2937 14.7212 17.3486 13.4408 17.6658C12.2542 17.9658 11.5703 18.4282 11.3891 19.0532C11.2375 19.5756 11.5101 19.9379 12.2067 20.1399Z" fill="#A294F9"/>
<path d="M4.752 19.928C3.856 19.928 3.408 19.576 3.408 18.872C3.408 18.5413 3.52 18.2587 3.744 18.024C3.968 17.7787 4.23467 17.656 4.544 17.656C4.768 17.656 4.944 17.7307 5.072 17.88C5.168 18.008 5.216 18.1467 5.216 18.296C5.216 18.424 5.18933 18.552 5.136 18.68C5.09333 18.7973 5.01333 18.8987 4.896 18.984C4.72533 19.144 4.528 19.224 4.304 19.224C4.112 19.224 3.952 19.16 3.824 19.032C3.94133 19.3413 4.24533 19.496 4.736 19.496C4.864 19.496 4.98133 19.48 5.088 19.448C6.00533 19.2027 6.80533 18.6747 7.488 17.864C8.07467 17.1493 8.84267 15.8587 9.792 13.992L12.176 9.304C12.304 9.05867 12.448 8.83467 12.608 8.632C12.7787 8.41867 12.9547 8.22667 13.136 8.056C12.7307 8.06667 12.304 8.12 11.856 8.216C11.4187 8.312 10.96 8.44 10.48 8.6C9.50933 8.93067 8.752 9.31467 8.208 9.752C7.16267 10.5733 6.64 11.336 6.64 12.04C6.64 12.456 6.88 12.664 7.36 12.664C7.92533 12.664 8.51733 12.4827 9.136 12.12C9.70133 11.7893 10.192 11.368 10.608 10.856C10.64 10.824 10.672 10.808 10.704 10.808C10.7787 10.808 10.816 10.8347 10.816 10.888C10.816 11.304 10.304 11.784 9.28 12.328C8.34133 12.84 7.62667 13.096 7.136 13.096C6.144 13.096 5.648 12.7173 5.648 11.96C5.648 11.608 5.78667 11.2347 6.064 10.84C6.39467 10.3707 6.83733 9.94933 7.392 9.576C7.94667 9.192 8.61867 8.856 9.408 8.568C10.7733 8.06667 12.1067 7.81067 13.408 7.8C14.08 7.224 14.7733 6.936 15.488 6.936C15.7867 6.936 16.0693 6.99467 16.336 7.112C16.3893 7.13333 16.416 7.17067 16.416 7.224C16.416 7.384 16.3733 7.43733 16.288 7.384C16.1173 7.288 15.904 7.24 15.648 7.24C15.136 7.24 14.6453 7.432 14.176 7.816C15.0613 7.90133 15.7227 8.14667 16.16 8.552C16.5227 8.91467 16.704 9.33067 16.704 9.8C16.704 10.504 16.4 11.208 15.792 11.912C15.2053 12.5947 14.48 13.0853 13.616 13.384C15.0667 13.64 15.792 14.344 15.792 15.496C15.792 16.456 15.296 17.3787 14.304 18.264C13.2267 19.2133 11.9253 19.7413 10.4 19.848C10.3253 19.8587 10.2453 19.864 10.16 19.864C10.0853 19.864 10.0053 19.864 9.92 19.864C8.52267 19.864 7.82933 19.4427 7.84 18.6C6.76267 19.4853 5.73333 19.928 4.752 19.928ZM11.408 13.368C11.6213 13.3467 11.8293 13.3307 12.032 13.32C12.2453 13.2987 12.448 13.288 12.64 13.288C13.44 13.1493 14.1387 12.7387 14.736 12.056C15.3547 11.352 15.664 10.616 15.664 9.848C15.664 9.432 15.5413 9.07467 15.296 8.776C14.9867 8.392 14.5173 8.15733 13.888 8.072C13.6853 8.27467 13.504 8.50933 13.344 8.776C13.1947 9.032 13.056 9.31467 12.928 9.624L11.408 13.368ZM9.824 19.592C10.0373 19.592 10.272 19.5653 10.528 19.512C10.784 19.4587 11.072 19.384 11.392 19.288C12.32 18.9893 13.0933 18.472 13.712 17.736C14.352 16.9787 14.672 16.2533 14.672 15.56C14.672 15.016 14.4693 14.584 14.064 14.264C13.616 13.912 12.96 13.736 12.096 13.736C11.8293 13.736 11.5413 13.752 11.232 13.784C11.1467 13.9973 11.0293 14.2587 10.88 14.568C10.7413 14.8773 10.5653 15.224 10.352 15.608C10.2773 15.736 10.1973 15.8693 10.112 16.008C10.0267 16.1467 9.93067 16.2907 9.824 16.44C10.2507 16.2267 10.688 16.0453 11.136 15.896C11.5947 15.736 12.0693 15.6027 12.56 15.496C12.7093 15.464 12.8213 15.448 12.896 15.448C13.0133 15.448 13.072 15.4693 13.072 15.512C13.072 15.6187 12.9067 15.7093 12.576 15.784C11.1573 16.1573 10.08 16.728 9.344 17.496C8.88533 17.9653 8.656 18.376 8.656 18.728C8.656 18.9093 8.71467 19.0747 8.832 19.224C9.04533 19.4693 9.376 19.592 9.824 19.592Z" fill="#A294F9"/>
<path d="M4.5 18L4.61226 18.3455H4.97553L4.68164 18.559L4.79389 18.9045L4.5 18.691L4.20611 18.9045L4.31836 18.559L4.02447 18.3455H4.38774L4.5 18Z" fill="white"/>
</svg>
